<svg width="61" height="10" viewBox="0 0 61 10" fill="none" xmlns="http://www.w3.org/2000/svg">
<path d="M0.360795 9V0.272727H3.63352C4.30398 0.272727 4.86648 0.389204 5.32102 0.622159C5.77841 0.855113 6.12358 1.18182 6.35653 1.60227C6.59233 2.01989 6.71023 2.5071 6.71023 3.06392C6.71023 3.62358 6.59091 4.10937 6.35227 4.52131C6.11648 4.9304 5.76847 5.24716 5.30824 5.47159C4.84801 5.69318 4.28267 5.80398 3.61222 5.80398H1.28125V4.49148H3.39915C3.79119 4.49148 4.11222 4.4375 4.36222 4.32955C4.61222 4.21875 4.79688 4.05824 4.91619 3.84801C5.03835 3.63494 5.09943 3.37358 5.09943 3.06392C5.09943 2.75426 5.03835 2.49006 4.91619 2.27131C4.79403 2.04972 4.60795 1.8821 4.35795 1.76847C4.10795 1.65199 3.78551 1.59375 3.39062 1.59375H1.94176V9H0.360795ZM4.86932 5.04545L7.02983 9H5.26562L3.14347 5.04545H4.86932ZM10.9013 9.12784C10.245 9.12784 9.67827 8.99148 9.20099 8.71875C8.72656 8.44318 8.36151 8.05398 8.10582 7.55114C7.85014 7.04545 7.7223 6.45028 7.7223 5.76562C7.7223 5.09233 7.85014 4.50142 8.10582 3.9929C8.36435 3.48153 8.72514 3.08381 9.18821 2.79972C9.65128 2.51278 10.1953 2.36932 10.8203 2.36932C11.2237 2.36932 11.6044 2.43466 11.9624 2.56534C12.3232 2.69318 12.6413 2.89205 12.9169 3.16193C13.1953 3.43182 13.4141 3.77557 13.5732 4.19318C13.7322 4.60795 13.8118 5.10227 13.8118 5.67614V6.14915H8.44673V5.10938H12.3331C12.3303 4.81392 12.2663 4.55114 12.1413 4.32102C12.0163 4.08807 11.8416 3.90483 11.6172 3.77131C11.3956 3.63778 11.1371 3.57102 10.8416 3.57102C10.5263 3.57102 10.2493 3.64773 10.0107 3.80114C9.77202 3.9517 9.58594 4.15057 9.45241 4.39773C9.32173 4.64205 9.25497 4.91051 9.25213 5.20312V6.1108C9.25213 6.49148 9.32173 6.81818 9.46094 7.09091C9.60014 7.3608 9.79474 7.56818 10.0447 7.71307C10.2947 7.85511 10.5874 7.92614 10.9226 7.92614C11.147 7.92614 11.3501 7.89489 11.532 7.83239C11.7138 7.76705 11.8714 7.67188 12.005 7.54688C12.1385 7.42188 12.2393 7.26705 12.3075 7.08239L13.7479 7.24432C13.657 7.625 13.4837 7.95739 13.228 8.24148C12.9751 8.52273 12.6513 8.74148 12.2564 8.89773C11.8615 9.05114 11.4098 9.12784 10.9013 9.12784ZM17.0004 9.1321C16.5856 9.1321 16.212 9.05824 15.8796 8.91051C15.5501 8.75994 15.2887 8.53835 15.0955 8.24574C14.9052 7.95312 14.81 7.59233 14.81 7.16335C14.81 6.79403 14.8782 6.48864 15.0146 6.24716C15.1509 6.00568 15.337 5.8125 15.5728 5.66761C15.8086 5.52273 16.0742 5.41335 16.3697 5.33949C16.668 5.26278 16.9762 5.20739 17.2944 5.1733C17.6779 5.13352 17.989 5.09801 18.2276 5.06676C18.4663 5.03267 18.6396 4.98153 18.7475 4.91335C18.8583 4.84233 18.9137 4.73295 18.9137 4.58523V4.55966C18.9137 4.23864 18.8185 3.99006 18.6282 3.81392C18.4379 3.63778 18.1637 3.54972 17.8058 3.54972C17.4279 3.54972 17.1282 3.6321 16.9066 3.79688C16.6879 3.96165 16.5401 4.15625 16.4634 4.38068L15.0231 4.17614C15.1367 3.77841 15.3242 3.44602 15.5856 3.17898C15.8469 2.90909 16.1665 2.70739 16.5444 2.57386C16.9222 2.4375 17.3398 2.36932 17.7972 2.36932C18.1126 2.36932 18.4265 2.40625 18.739 2.48011C19.0515 2.55398 19.337 2.67614 19.5955 2.84659C19.854 3.0142 20.0614 3.2429 20.2177 3.53267C20.3768 3.82244 20.4563 4.18466 20.4563 4.61932V9H18.9734V8.10085H18.9222C18.8285 8.28267 18.6964 8.45312 18.5259 8.61222C18.3583 8.76847 18.1467 8.89489 17.891 8.99148C17.6381 9.08523 17.3413 9.1321 17.0004 9.1321ZM17.4009 7.99858C17.7106 7.99858 17.979 7.9375 18.2063 7.81534C18.4336 7.69034 18.6083 7.52557 18.7305 7.32102C18.8555 7.11648 18.918 6.89347 18.918 6.65199V5.88068C18.8697 5.92045 18.7873 5.95739 18.6708 5.99148C18.5572 6.02557 18.4293 6.0554 18.2873 6.08097C18.1452 6.10653 18.0046 6.12926 17.8654 6.14915C17.7262 6.16903 17.6055 6.18608 17.5032 6.20028C17.2731 6.23153 17.0671 6.28267 16.8853 6.35369C16.7035 6.42472 16.56 6.52415 16.4549 6.65199C16.3498 6.77699 16.2972 6.93892 16.2972 7.13778C16.2972 7.42188 16.4009 7.63636 16.6083 7.78125C16.8157 7.92614 17.0799 7.99858 17.4009 7.99858ZM24.4364 9.11506C23.9222 9.11506 23.462 8.98295 23.0558 8.71875C22.6495 8.45455 22.3285 8.07102 22.0927 7.56818C21.8569 7.06534 21.739 6.45455 21.739 5.7358C21.739 5.00852 21.8583 4.39489 22.0969 3.89489C22.3384 3.39205 22.6637 3.01278 23.0728 2.7571C23.4819 2.49858 23.9379 2.36932 24.4407 2.36932C24.8242 2.36932 25.1396 2.43466 25.3867 2.56534C25.6339 2.69318 25.8299 2.84801 25.9748 3.02983C26.1197 3.20881 26.2319 3.37784 26.3114 3.53693H26.3754V0.272727H27.9222V9H26.4052V7.96875H26.3114C26.2319 8.12784 26.1168 8.29687 25.9663 8.47585C25.8157 8.65199 25.6168 8.80256 25.3697 8.92756C25.1225 9.05256 24.8114 9.11506 24.4364 9.11506ZM24.8668 7.84943C25.1935 7.84943 25.4719 7.76136 25.7021 7.58523C25.9322 7.40625 26.1069 7.15767 26.2262 6.83949C26.3455 6.52131 26.4052 6.15057 26.4052 5.72727C26.4052 5.30398 26.3455 4.93608 26.2262 4.62358C26.1097 4.31108 25.9364 4.06818 25.7063 3.89489C25.479 3.72159 25.1992 3.63494 24.8668 3.63494C24.5231 3.63494 24.2362 3.72443 24.006 3.90341C23.7759 4.08239 23.6026 4.32955 23.4862 4.64489C23.3697 4.96023 23.3114 5.32102 23.3114 5.72727C23.3114 6.13636 23.3697 6.50142 23.4862 6.82244C23.6055 7.14062 23.7802 7.39205 24.0103 7.5767C24.2433 7.75852 24.5288 7.84943 24.8668 7.84943ZM32.5426 9V2.45455H34.017V3.56676H34.0938C34.2301 3.19176 34.456 2.89915 34.7713 2.68892C35.0866 2.47585 35.4631 2.36932 35.9006 2.36932C36.3438 2.36932 36.7173 2.47727 37.0213 2.69318C37.3281 2.90625 37.544 3.19744 37.669 3.56676H37.7372C37.8821 3.20312 38.1264 2.91335 38.4702 2.69744C38.8168 2.47869 39.2273 2.36932 39.7017 2.36932C40.304 2.36932 40.7955 2.55966 41.1761 2.94034C41.5568 3.32102 41.7472 3.87642 41.7472 4.60653V9H40.2003V4.84517C40.2003 4.43892 40.0923 4.14205 39.8764 3.95455C39.6605 3.7642 39.3963 3.66903 39.0838 3.66903C38.7116 3.66903 38.4205 3.78551 38.2102 4.01847C38.0028 4.24858 37.8991 4.5483 37.8991 4.91761V9H36.3864V4.78125C36.3864 4.44318 36.2841 4.1733 36.0795 3.97159C35.8778 3.76989 35.6136 3.66903 35.2869 3.66903C35.0653 3.66903 34.8636 3.72585 34.6818 3.83949C34.5 3.95028 34.3551 4.10795 34.2472 4.3125C34.1392 4.5142 34.0852 4.75 34.0852 5.01989V9H32.5426ZM46.1673 9.12784C45.5281 9.12784 44.9741 8.98722 44.5053 8.70597C44.0366 8.42472 43.6729 8.03125 43.4144 7.52557C43.1587 7.01989 43.0309 6.42898 43.0309 5.75284C43.0309 5.0767 43.1587 4.48437 43.4144 3.97585C43.6729 3.46733 44.0366 3.07244 44.5053 2.79119C44.9741 2.50994 45.5281 2.36932 46.1673 2.36932C46.8065 2.36932 47.3604 2.50994 47.8292 2.79119C48.2979 3.07244 48.6602 3.46733 48.9158 3.97585C49.1744 4.48437 49.3036 5.0767 49.3036 5.75284C49.3036 6.42898 49.1744 7.01989 48.9158 7.52557C48.6602 8.03125 48.2979 8.42472 47.8292 8.70597C47.3604 8.98722 46.8065 9.12784 46.1673 9.12784ZM46.1758 7.89205C46.5224 7.89205 46.8121 7.79687 47.0451 7.60653C47.2781 7.41335 47.4513 7.15483 47.565 6.83097C47.6815 6.5071 47.7397 6.14631 47.7397 5.74858C47.7397 5.34801 47.6815 4.9858 47.565 4.66193C47.4513 4.33523 47.2781 4.07528 47.0451 3.8821C46.8121 3.68892 46.5224 3.59233 46.1758 3.59233C45.8207 3.59233 45.5252 3.68892 45.2894 3.8821C45.0565 4.07528 44.8817 4.33523 44.7653 4.66193C44.6516 4.9858 44.5948 5.34801 44.5948 5.74858C44.5948 6.14631 44.6516 6.5071 44.7653 6.83097C44.8817 7.15483 45.0565 7.41335 45.2894 7.60653C45.5252 7.79687 45.8207 7.89205 46.1758 7.89205ZM50.6129 9V2.45455H52.1087V3.54545H52.1768C52.2962 3.16761 52.5007 2.87642 52.7905 2.67188C53.0831 2.46449 53.4169 2.3608 53.7919 2.3608C53.8771 2.3608 53.9723 2.36506 54.0774 2.37358C54.1854 2.37926 54.2749 2.3892 54.3459 2.40341V3.82244C54.2805 3.79972 54.1768 3.77983 54.0348 3.76278C53.8956 3.7429 53.7607 3.73295 53.63 3.73295C53.3487 3.73295 53.0959 3.79403 52.8714 3.91619C52.6499 4.03551 52.4751 4.2017 52.3473 4.41477C52.2195 4.62784 52.1555 4.87358 52.1555 5.15199V9H50.6129ZM57.9989 9.12784C57.3427 9.12784 56.7759 8.99148 56.2987 8.71875C55.8242 8.44318 55.4592 8.05398 55.2035 7.55114C54.9478 7.04545 54.82 6.45028 54.82 5.76562C54.82 5.09233 54.9478 4.50142 55.2035 3.9929C55.462 3.48153 55.8228 3.08381 56.2859 2.79972C56.7489 2.51278 57.293 2.36932 57.918 2.36932C58.3214 2.36932 58.7021 2.43466 59.06 2.56534C59.4208 2.69318 59.739 2.89205 60.0146 3.16193C60.293 3.43182 60.5117 3.77557 60.6708 4.19318C60.8299 4.60795 60.9094 5.10227 60.9094 5.67614V6.14915H55.5444V5.10938H59.4308C59.4279 4.81392 59.364 4.55114 59.239 4.32102C59.114 4.08807 58.9393 3.90483 58.7148 3.77131C58.4933 3.63778 58.2347 3.57102 57.9393 3.57102C57.6239 3.57102 57.3469 3.64773 57.1083 3.80114C56.8697 3.9517 56.6836 4.15057 56.5501 4.39773C56.4194 4.64205 56.3526 4.91051 56.3498 5.20312V6.1108C56.3498 6.49148 56.4194 6.81818 56.5586 7.09091C56.6978 7.3608 56.8924 7.56818 57.1424 7.71307C57.3924 7.85511 57.685 7.92614 58.0202 7.92614C58.2447 7.92614 58.4478 7.89489 58.6296 7.83239C58.8114 7.76705 58.9691 7.67188 59.1026 7.54688C59.2362 7.42188 59.337 7.26705 59.4052 7.08239L60.8455 7.24432C60.7546 7.625 60.5813 7.95739 60.3256 8.24148C60.0728 8.52273 59.7489 8.74148 59.354 8.89773C58.9592 9.05114 58.5075 9.12784 57.9989 9.12784Z" fill="white"/>
</svg>
