<svg width="16" height="12" viewBox="0 0 16 12" fill="none" xmlns="http://www.w3.org/2000/svg">
<g opacity="0.9">
<path d="M5.28049 12C10.8137 12 13.841 7.38278 13.841 3.37993C13.841 3.25014 13.8381 3.11745 13.8324 2.98765C14.4213 2.55879 14.9295 2.02761 15.3332 1.41904C14.7847 1.66476 14.2024 1.82523 13.6061 1.89499C14.234 1.51603 14.7041 0.920708 14.9292 0.219371C14.3386 0.571851 13.6927 0.820487 13.0192 0.954636C12.5654 0.46909 11.9653 0.147595 11.3119 0.0398622C10.6584 -0.0678608 9.98785 0.0441745 9.40401 0.35865C8.82012 0.673125 8.35539 1.17253 8.08163 1.77966C7.80788 2.38678 7.74037 3.06779 7.88955 3.71743C6.69358 3.657 5.52358 3.34415 4.45538 2.79918C3.38719 2.25421 2.44465 1.48928 1.68888 0.553981C1.30475 1.22087 1.18721 2.01001 1.36013 2.76103C1.53306 3.51205 1.98348 4.16857 2.61986 4.5972C2.14211 4.58193 1.67482 4.45241 1.25661 4.21933V4.25683C1.25618 4.95667 1.49645 5.63508 1.93658 6.17671C2.37672 6.71834 2.98954 7.08978 3.67088 7.22788C3.22831 7.34981 2.76383 7.36758 2.31336 7.2798C2.50562 7.88169 2.87968 8.40805 3.38337 8.78554C3.88704 9.16303 4.49519 9.37284 5.12293 9.38554C4.05721 10.2284 2.74072 10.6857 1.38551 10.6835C1.14518 10.6831 0.905082 10.6684 0.666504 10.6391C2.04325 11.5285 3.64478 12.0009 5.28049 12Z" fill="white"/>
</g>
</svg>
