<svg width="48" height="48" viewBox="0 0 48 48" fill="none" xmlns="http://www.w3.org/2000/svg">
<g clip-path="url(#clip0_6036_1823)">
<path d="M24 48.8467C37.2548 48.8467 48 38.1015 48 24.8467C48 11.5918 37.2548 0.84668 24 0.84668C10.7452 0.84668 0 11.5918 0 24.8467C0 38.1015 10.7452 48.8467 24 48.8467Z" fill="white"/>
<mask id="mask0_6036_1823" style="mask-type:luminance" maskUnits="userSpaceOnUse" x="5" y="6" width="38" height="38">
<path d="M42.4001 6.44727H5.6001V43.2473H42.4001V6.44727Z" fill="white"/>
</mask>
<g mask="url(#mask0_6036_1823)">
<path d="M36.9796 14.042L25.7171 8.65936C24.5224 8.08238 23.1139 8.16045 21.99 8.86675L10.3685 16.1851C9.24457 16.8914 8.56409 18.1295 8.56986 19.4561L8.61268 31.9017C8.61857 33.3727 9.46225 34.7133 10.787 35.3551L22.0495 40.7379C23.2441 41.3149 24.6526 41.2368 25.7765 40.5305L37.398 33.2121C38.5219 32.5058 39.2024 31.2678 39.1966 29.9412L39.1749 23.25L39.1562 17.4956C39.1504 16.0244 38.3066 14.6839 36.9844 14.0445L36.9796 14.042Z" fill="white" stroke="#31373D" stroke-miterlimit="10"/>
<g opacity="0.8">
<mask id="path-4-inside-1_6036_1823" fill="white">
<path d="M21.089 36.3622L13.0586 32.5229C12.2376 32.1251 11.7029 31.2763 11.7001 30.3617L11.6694 21.3755"/>
</mask>
<path d="M21.089 36.3622L13.0586 32.5229C12.2376 32.1251 11.7029 31.2763 11.7001 30.3617L11.6694 21.3755" fill="white"/>
<path d="M13.0586 32.5229L12.6225 33.4228L12.6272 33.4251L13.0586 32.5229ZM11.7001 30.3617L12.7001 30.3585L12.7001 30.3582L11.7001 30.3617ZM21.5203 35.46L13.4899 31.6207L12.6272 33.4251L20.6576 37.2644L21.5203 35.46ZM13.4946 31.623C13.0174 31.3918 12.7017 30.891 12.7001 30.3585L10.7001 30.3648C10.7041 31.6617 11.4577 32.8584 12.6225 33.4228L13.4946 31.623ZM12.7001 30.3582L12.6694 21.3721L10.6694 21.3789L10.7001 30.3651L12.7001 30.3582Z" fill="#31373D" mask="url(#path-4-inside-1_6036_1823)"/>
<path d="M21.089 36.3622L13.0586 32.5229C12.2376 32.1251 11.7029 31.2763 11.7001 30.3617L11.6694 21.3755" stroke="#31373D" stroke-width="0.8" stroke-miterlimit="10"/>
<mask id="path-7-inside-2_6036_1823" fill="white">
<path d="M13.2856 20.1748L21.418 23.6668C22.3796 24.0894 23.0039 24.9742 23.0072 25.9279L23.0398 34.1988"/>
</mask>
<path d="M13.2856 20.1748L21.418 23.6668C22.3796 24.0894 23.0039 24.9742 23.0072 25.9279L23.0398 34.1988" fill="white"/>
<path d="M21.418 23.6668L21.8203 22.7513L21.8126 22.7479L21.418 23.6668ZM23.0072 25.9279L22.0072 25.9314L22.0072 25.9319L23.0072 25.9279ZM12.8911 21.0937L21.0234 24.5857L21.8126 22.7479L13.6802 19.2559L12.8911 21.0937ZM21.0157 24.5823C21.6645 24.8674 22.0054 25.4243 22.0072 25.9314L24.0072 25.9245C24.0023 24.5241 23.0946 23.3113 21.8203 22.7513L21.0157 24.5823ZM22.0072 25.9319L22.0398 34.2028L24.0398 34.1949L24.0072 25.924L22.0072 25.9319Z" fill="#31373D" mask="url(#path-7-inside-2_6036_1823)"/>
<path d="M14.7549 20.7803L21.6621 24.1215C22.4788 24.5258 23.009 25.3725 23.0119 26.285L23.0395 34.1988" stroke="#31373D" stroke-width="0.8" stroke-miterlimit="10"/>
<mask id="path-10-inside-3_6036_1823" fill="white">
<path d="M11.6871 25.0896L11.6729 20.6251C11.6726 20.2246 11.9503 20.0055 12.0707 19.9288C12.191 19.8543 12.5104 19.6966 12.8716 19.8713L15.1595 20.977"/>
</mask>
<path d="M11.6871 25.0896L11.6729 20.6251C11.6726 20.2246 11.9503 20.0055 12.0707 19.9288C12.191 19.8543 12.5104 19.6966 12.8716 19.8713L15.1595 20.977" fill="white"/>
<path d="M11.6729 20.6251L10.6728 20.6258L10.6729 20.6283L11.6729 20.6251ZM12.0707 19.9288L11.5439 19.0787L11.5333 19.0854L12.0707 19.9288ZM12.8716 19.8713L12.4361 20.7715L12.4365 20.7717L12.8716 19.8713ZM12.687 25.0865L12.6728 20.6219L10.6729 20.6283L10.6871 25.0928L12.687 25.0865ZM12.6729 20.6243C12.6729 20.6425 12.6693 20.6676 12.6597 20.6945C12.6506 20.7199 12.6393 20.7383 12.6311 20.7493C12.6235 20.7597 12.6178 20.7648 12.6161 20.7663C12.6144 20.7678 12.6123 20.7694 12.608 20.7722L11.5333 19.0854C11.3176 19.2229 10.6722 19.7045 10.6729 20.6258L12.6729 20.6243ZM12.5973 20.7789C12.5938 20.7811 12.5919 20.782 12.5902 20.7827C12.5886 20.7834 12.5819 20.7862 12.5694 20.7886C12.5561 20.7912 12.5344 20.7935 12.5071 20.7907C12.4782 20.7877 12.4533 20.7798 12.4361 20.7715L13.3071 18.9712C12.4733 18.5677 11.7555 18.9477 11.544 19.0787L12.5973 20.7789ZM12.4365 20.7717L14.7243 21.8774L15.5946 20.0767L13.3068 18.971L12.4365 20.7717Z" fill="#31373D" mask="url(#path-10-inside-3_6036_1823)"/>
<path d="M11.6871 25.0896L11.6729 20.6251C11.6726 20.2246 11.9503 20.0055 12.0707 19.9288C12.191 19.8543 12.5104 19.6966 12.8716 19.8713L15.1595 20.977" stroke="#31373D" stroke-width="0.8" stroke-miterlimit="10"/>
<mask id="path-13-inside-4_6036_1823" fill="white">
<path d="M23.0273 31.1504L23.0439 36.0417C23.0442 36.44 22.784 36.6481 22.6725 36.7183C22.5608 36.7884 22.2611 36.9352 21.9021 36.7605L16.8447 34.3479"/>
</mask>
<path d="M23.0273 31.1504L23.0439 36.0417C23.0442 36.44 22.784 36.6481 22.6725 36.7183C22.5608 36.7884 22.2611 36.9352 21.9021 36.7605L16.8447 34.3479" fill="white"/>
<path d="M23.0439 36.0417L24.0439 36.041L24.0439 36.0383L23.0439 36.0417ZM22.6725 36.7183L23.2045 37.565L23.205 37.5647L22.6725 36.7183ZM21.9021 36.7605L22.3398 35.8613L22.3327 35.8579L21.9021 36.7605ZM22.0273 31.1538L22.0439 36.0451L24.0439 36.0383L24.0273 31.147L22.0273 31.1538ZM22.0439 36.0424C22.0439 36.0308 22.0462 36.0094 22.0551 35.9832C22.0637 35.958 22.0753 35.9373 22.0863 35.9219C22.1047 35.8962 22.1225 35.8829 22.14 35.8718L23.205 37.5647C23.4431 37.4149 24.0446 36.9408 24.0439 36.041L22.0439 36.0424ZM22.1405 35.8715C22.1538 35.8631 22.1731 35.8523 22.2061 35.8465C22.2255 35.843 22.2505 35.8413 22.2783 35.8447C22.3073 35.8482 22.3287 35.8559 22.3398 35.8613L21.4644 37.6596C22.2813 38.0573 22.973 37.7104 23.2045 37.565L22.1405 35.8715ZM22.3327 35.8579L17.2753 33.4453L16.4142 35.2505L21.4715 37.663L22.3327 35.8579Z" fill="#31373D" mask="url(#path-13-inside-4_6036_1823)"/>
<path d="M23.0273 31.1504L23.0439 36.0417C23.0442 36.44 22.784 36.6481 22.6725 36.7183C22.5608 36.7884 22.2611 36.9352 21.9021 36.7605L16.8447 34.3479" stroke="#31373D" stroke-width="0.8" stroke-miterlimit="10"/>
</g>
</g>
</g>
<defs>
<clipPath id="clip0_6036_1823">
<rect width="48" height="48" fill="white"/>
</clipPath>
</defs>
</svg>
