<svg width="48" height="48" viewBox="0 0 48 48" fill="none" xmlns="http://www.w3.org/2000/svg">
<rect x="0.5" y="0.5" width="47" height="47" rx="23.5" fill="#31373D"/>
<rect x="0.5" y="0.5" width="47" height="47" rx="23.5" stroke="#31373D"/>
<g clip-path="url(#clip0_803_54873)">
<path d="M34.5 36C34.5 36 30.9645 34.6087 28.1047 33.495H16.0777C14.655 33.495 13.5 32.2695 13.5 30.7598V14.733C13.5 13.2248 14.655 12 16.0777 12H31.9215C33.345 12 34.4993 13.224 34.4993 14.7337V28.5368L34.5 36ZM31.3958 27.0135C31.3396 26.9414 31.2691 26.8818 31.1886 26.8383C31.1082 26.7949 31.0196 26.7687 30.9285 26.7613C30.8375 26.7539 30.7458 26.7655 30.6594 26.7953C30.5731 26.8252 30.4938 26.8727 30.4268 26.9347C30.4043 26.9543 28.1655 28.9455 23.9992 28.9455C19.8847 28.9455 17.6115 26.9685 17.571 26.9325C17.5039 26.8707 17.4246 26.8236 17.3383 26.794C17.2521 26.7644 17.1606 26.753 17.0697 26.7605C16.9787 26.7681 16.8904 26.7944 16.8101 26.8378C16.7299 26.8812 16.6596 26.9408 16.6035 27.0128C16.4834 27.1625 16.4247 27.3523 16.4392 27.5438C16.4519 27.7342 16.5373 27.9125 16.6778 28.0417C16.7843 28.1378 19.3305 30.4042 23.9992 30.4042C28.6687 30.4042 31.215 28.1378 31.3215 28.0417C31.4617 27.9124 31.5468 27.7341 31.5592 27.5438C31.5738 27.3527 31.5154 27.1632 31.3958 27.0135Z" fill="white"/>
</g>
<defs>
<clipPath id="clip0_803_54873">
<rect width="21" height="24" fill="white" transform="translate(13.5 12)"/>
</clipPath>
</defs>
</svg>
